<svg 
 xmlns="http://www.w3.org/2000/svg"
 xmlns:xlink="http://www.w3.org/1999/xlink"
 width="47px" height="47px">
<path fill-rule="evenodd" d="M34.029,47.000 L12.970,47.000 C5.818,47.000 -0.000,41.182 -0.000,34.030 L-0.000,12.970 C-0.000,5.819 5.818,-0.000 12.970,-0.000 L34.029,-0.000 C41.182,-0.000 47.000,5.819 47.000,12.970 L47.000,34.030 C47.000,41.181 41.182,47.000 34.029,47.000 ZM42.830,34.030 L42.830,12.970 C42.830,8.118 38.882,4.170 34.029,4.170 L12.970,4.170 C8.118,4.170 4.170,8.118 4.170,12.970 L4.170,34.030 C4.170,38.882 8.118,42.830 12.970,42.830 L34.030,42.830 C38.882,42.830 42.830,38.882 42.830,34.030 L42.830,34.030 ZM36.118,13.970 C35.315,13.970 34.526,13.642 33.958,13.075 C33.388,12.505 33.060,11.716 33.060,10.912 C33.060,10.106 33.388,9.316 33.958,8.749 C34.526,8.179 35.315,7.854 36.118,7.854 C36.925,7.854 37.714,8.179 38.281,8.749 C38.851,9.316 39.176,10.106 39.176,10.912 C39.176,11.715 38.851,12.505 38.281,13.075 C37.711,13.642 36.925,13.970 36.118,13.970 ZM23.500,35.611 C16.822,35.611 11.389,30.178 11.389,23.501 C11.389,16.823 16.822,11.390 23.500,11.390 C30.178,11.390 35.611,16.823 35.611,23.501 C35.611,30.178 30.178,35.611 23.500,35.611 ZM23.500,15.560 C19.121,15.560 15.559,19.122 15.559,23.500 C15.559,27.879 19.122,31.440 23.500,31.440 C27.878,31.440 31.441,27.879 31.441,23.500 C31.441,19.122 27.878,15.560 23.500,15.560 Z"/>
</svg>