<svg 
 xmlns="http://www.w3.org/2000/svg"
 xmlns:xlink="http://www.w3.org/1999/xlink"
 width="18px" height="26px">
<path fill-rule="evenodd" d="M15.037,16.933 L15.038,16.934 C13.601,17.813 11.622,18.161 10.315,18.293 C9.990,17.980 15.308,23.081 15.418,23.185 C16.882,24.629 14.500,26.887 13.019,25.492 C12.017,24.513 10.547,23.099 9.014,21.624 L5.009,25.487 C3.530,26.876 1.146,24.599 2.627,23.180 C6.349,19.599 7.390,18.598 7.638,18.360 C7.623,18.374 7.631,18.367 7.714,18.287 C6.423,18.156 4.413,17.827 2.959,16.928 C1.248,15.868 0.498,15.248 1.158,13.949 C1.547,13.212 2.612,12.590 4.022,13.662 C4.022,13.662 5.927,15.122 9.002,15.122 C12.076,15.122 13.982,13.662 13.982,13.662 C15.394,12.596 16.454,13.212 16.847,13.949 C17.498,15.248 16.748,15.867 15.037,16.933 ZM7.638,18.360 C7.667,18.332 7.782,18.221 7.638,18.360 ZM9.000,13.153 C5.251,13.153 2.191,10.224 2.191,6.619 C2.191,2.999 5.251,0.070 9.000,0.070 C12.748,0.070 15.808,2.999 15.808,6.619 C15.808,10.224 12.748,13.153 9.000,13.153 ZM9.000,3.388 C7.158,3.388 5.656,4.832 5.657,6.619 C5.657,8.390 7.159,9.835 9.000,9.835 C10.841,9.835 12.343,8.390 12.343,6.619 C12.343,4.833 10.841,3.388 9.000,3.388 Z"/>
</svg>