<svg 
 xmlns="http://www.w3.org/2000/svg"
 xmlns:xlink="http://www.w3.org/1999/xlink"
 width="19px" height="19px">
<path fill-rule="evenodd" d="M18.086,17.210 L13.646,12.565 C14.788,11.199 15.413,9.482 15.413,7.694 C15.413,3.516 12.034,0.117 7.882,0.117 C3.729,0.117 0.350,3.516 0.350,7.694 C0.350,11.872 3.729,15.271 7.882,15.271 C9.441,15.271 10.926,14.797 12.196,13.900 L16.670,18.580 C16.857,18.775 17.108,18.883 17.378,18.883 C17.633,18.883 17.875,18.785 18.059,18.607 C18.449,18.229 18.461,17.603 18.086,17.210 ZM7.882,2.094 C10.951,2.094 13.448,4.606 13.448,7.694 C13.448,10.782 10.951,13.294 7.882,13.294 C4.812,13.294 2.315,10.782 2.315,7.694 C2.315,4.606 4.812,2.094 7.882,2.094 Z"/>
</svg>