<svg 
 xmlns="http://www.w3.org/2000/svg"
 xmlns:xlink="http://www.w3.org/1999/xlink"
 width="57px" height="33px">
<path fill-rule="evenodd" d="M56.862,2.699 C56.862,2.699 56.452,1.530 53.908,1.854 L45.485,1.913 C44.842,1.823 44.374,2.086 44.374,2.086 C44.374,2.086 43.877,2.350 43.643,2.994 C42.268,6.533 40.513,9.574 40.513,9.574 C36.770,15.947 35.249,16.300 34.635,15.889 C33.202,14.984 33.582,12.204 33.582,10.218 C33.582,4.019 34.518,1.443 31.739,0.771 C30.833,0.566 30.160,0.422 27.791,0.390 C24.779,0.359 22.235,0.390 20.802,1.091 C19.836,1.560 19.105,2.609 19.544,2.671 C20.100,2.760 21.357,3.024 22.030,3.929 C22.030,3.929 22.761,5.128 22.878,7.759 C23.200,15.043 21.708,15.947 21.708,15.947 C20.568,16.562 18.579,15.542 15.654,9.514 C15.654,9.514 13.958,6.533 12.642,3.257 C12.408,2.642 11.940,2.320 11.940,2.320 C11.940,2.320 11.414,1.913 10.653,1.792 L2.640,1.854 C1.412,1.854 0.973,2.407 0.973,2.407 C0.973,2.407 0.534,2.874 0.944,3.841 C7.202,18.551 14.338,25.924 14.338,25.924 C14.338,25.924 20.860,32.734 28.259,32.267 L28.259,32.267 L31.623,32.267 C32.646,32.181 33.172,31.627 33.172,31.627 C33.172,31.627 33.640,31.098 33.611,30.133 C33.553,25.630 35.658,24.958 35.658,24.958 C37.705,24.313 40.338,29.316 43.145,31.246 C43.145,31.246 45.280,32.707 46.889,32.385 L54.375,32.267 C58.324,32.238 56.452,28.963 56.452,28.963 C56.306,28.699 55.370,26.684 50.866,22.499 C46.187,18.144 46.801,18.842 52.475,11.298 C55.926,6.707 57.300,3.899 56.862,2.699 Z"/>
</svg>