<svg 
 xmlns="http://www.w3.org/2000/svg"
 xmlns:xlink="http://www.w3.org/1999/xlink"
 width="26px" height="19px">
<path fill-rule="evenodd" d="M25.601,9.075 C23.480,4.609 18.657,0.583 13.015,0.583 C6.666,0.583 2.103,5.549 0.428,9.075 C0.301,9.344 0.301,9.656 0.428,9.925 C2.550,14.391 7.373,18.417 13.015,18.417 C19.363,18.417 23.927,13.451 25.601,9.925 C25.729,9.656 25.729,9.344 25.601,9.075 ZM13.015,16.436 C8.450,16.436 4.666,13.427 2.446,9.500 C4.656,5.589 8.439,2.564 13.015,2.564 C17.579,2.564 21.364,5.572 23.584,9.500 C21.373,13.411 17.591,16.436 13.015,16.436 ZM13.015,4.546 C10.283,4.546 8.061,6.768 8.061,9.500 C8.061,12.232 10.283,14.454 13.015,14.454 C15.747,14.454 17.969,12.232 17.969,9.500 C17.969,6.768 15.747,4.546 13.015,4.546 ZM13.015,12.472 C11.376,12.472 10.042,11.139 10.042,9.500 C10.042,7.861 11.376,6.528 13.015,6.528 C14.654,6.528 15.987,7.861 15.987,9.500 C15.987,11.139 14.654,12.472 13.015,12.472 Z"/>
</svg>