<svg 
 xmlns="http://www.w3.org/2000/svg"
 xmlns:xlink="http://www.w3.org/1999/xlink"
 width="35px" height="45px">
<path fill-rule="evenodd"  fill="rgb(162, 162, 162)"
 d="M33.676,10.687 L23.275,0.472 C22.996,0.198 22.620,0.045 22.229,0.045 L5.564,0.045 C2.496,0.045 -0.001,2.541 -0.001,5.610 L-0.001,38.452 C-0.001,41.521 2.495,44.017 5.564,44.017 L28.557,44.017 C31.625,44.017 34.122,41.521 34.122,38.452 L34.122,11.751 C34.122,11.351 33.961,10.968 33.676,10.687 ZM23.721,5.092 L28.983,10.260 L24.195,10.260 C23.934,10.260 23.721,10.047 23.721,9.786 L23.721,5.092 ZM28.557,41.034 L5.564,41.034 C4.141,41.034 2.982,39.876 2.982,38.452 L2.982,5.610 C2.982,4.186 4.140,3.028 5.564,3.028 L20.738,3.028 L20.738,9.786 C20.738,11.692 22.289,13.243 24.196,13.243 L31.139,13.243 L31.139,38.452 C31.139,39.876 29.981,41.034 28.557,41.034 Z"/>
</svg>