<svg
 xmlns="http://www.w3.org/2000/svg"
 xmlns:xlink="http://www.w3.org/1999/xlink"
 width="42px" height="40px">
<path fill-rule="evenodd"  fill="rgb(255, 255, 255)"
 d="M13.626,31.955 C21.508,37.537 32.422,35.670 38.002,27.788 C43.582,19.907 41.717,8.993 33.834,3.413 C25.952,-2.168 15.039,-0.302 9.459,7.581 C5.476,13.206 5.169,20.644 8.674,26.578 L1.858,33.470 C0.393,34.863 0.334,37.179 1.726,38.644 C3.117,40.110 5.433,40.168 6.898,38.778 C6.945,38.733 6.988,38.691 7.032,38.644 L13.626,31.955 ZM12.431,17.673 C12.430,11.445 17.475,6.395 23.704,6.391 C29.932,6.390 34.982,11.436 34.984,17.665 C34.987,23.886 29.949,28.933 23.729,28.945 C17.499,28.955 12.442,23.912 12.431,17.681 C12.431,17.679 12.431,17.677 12.431,17.673 Z"/>
</svg>