<?xml version="1.0" encoding="utf-8"?><svg viewBox="0 0 57 47" xmlns="http://www.w3.org/2000/svg" xmlns:xlink="http://www.w3.org/1999/xlink"><style>:root>svg{display:none}:root>svg:target{display:block}</style><svg viewBox="0 0 19 19" id="ic_search" xmlns="http://www.w3.org/2000/svg"><path fill-rule="evenodd" d="M18.086 17.21l-4.44-4.645a7.58 7.58 0 0 0 1.767-4.871c0-4.178-3.379-7.577-7.531-7.577C3.729.117.35 3.516.35 7.694s3.379 7.577 7.532 7.577a7.424 7.424 0 0 0 4.314-1.371l4.474 4.68a.975.975 0 0 0 1.389.027.994.994 0 0 0 .027-1.397zM7.882 2.094c3.069 0 5.566 2.512 5.566 5.6 0 3.088-2.497 5.6-5.566 5.6-3.07 0-5.567-2.512-5.567-5.6 0-3.088 2.497-5.6 5.567-5.6z"/></svg><svg viewBox="0 0 57 33" id="ic_soc1" xmlns="http://www.w3.org/2000/svg"><path fill-rule="evenodd" d="M56.862 2.699s-.41-1.169-2.954-.845l-8.423.059c-.643-.09-1.111.173-1.111.173s-.497.264-.731.908c-1.375 3.539-3.13 6.58-3.13 6.58-3.743 6.373-5.264 6.726-5.878 6.315-1.433-.905-1.053-3.685-1.053-5.671 0-6.199.936-8.775-1.843-9.447C30.833.566 30.16.422 27.791.39c-3.012-.031-5.556 0-6.989.701-.966.469-1.697 1.518-1.258 1.58.556.089 1.813.353 2.486 1.258 0 0 .731 1.199.848 3.83.322 7.284-1.17 8.188-1.17 8.188-1.14.615-3.129-.405-6.054-6.433 0 0-1.696-2.981-3.012-6.257-.234-.615-.702-.937-.702-.937s-.526-.407-1.287-.528l-8.013.062c-1.228 0-1.667.553-1.667.553s-.439.467-.029 1.434c6.258 14.71 13.394 22.083 13.394 22.083s6.522 6.81 13.921 6.343h3.364c1.023-.086 1.549-.64 1.549-.64s.468-.529.439-1.494c-.058-4.503 2.047-5.175 2.047-5.175 2.047-.645 4.68 4.358 7.487 6.288 0 0 2.135 1.461 3.744 1.139l7.486-.118c3.949-.029 2.077-3.304 2.077-3.304-.146-.264-1.082-2.279-5.586-6.464-4.679-4.355-4.065-3.657 1.609-11.201 3.451-4.591 4.825-7.399 4.387-8.599z"/></svg><svg viewBox="0 0 24 45" id="ic_soc2" xmlns="http://www.w3.org/2000/svg"><path fill-rule="evenodd" d="M23.275 1.297c-.711-.109-3.159-.317-6.002-.317-5.95 0-10.03 3.631-10.03 10.289v5.742H.53v7.792h6.713v19.981h8.056V24.803h6.686l1.027-7.792h-7.713v-4.974c0-2.239.605-3.792 3.843-3.792h4.133V1.297z"/></svg><svg viewBox="0 0 47 47" id="ic_soc3" xmlns="http://www.w3.org/2000/svg"><path fill-rule="evenodd" d="M34.029 47H12.97C5.818 47 0 41.182 0 34.03V12.97C0 5.819 5.818 0 12.97 0h21.059C41.182 0 47 5.819 47 12.97v21.06C47 41.181 41.182 47 34.029 47zm8.801-12.97V12.97c0-4.852-3.948-8.8-8.801-8.8H12.97c-4.852 0-8.8 3.948-8.8 8.8v21.06c0 4.852 3.948 8.8 8.8 8.8h21.06c4.852 0 8.8-3.948 8.8-8.8zm-6.712-20.06a3.084 3.084 0 0 1-2.16-.895 3.083 3.083 0 0 1-.898-2.163c0-.806.328-1.596.898-2.163a3.071 3.071 0 0 1 2.16-.895 3.07 3.07 0 0 1 2.163.895c.57.567.895 1.357.895 2.163 0 .803-.325 1.593-.895 2.163a3.087 3.087 0 0 1-2.163.895zM23.5 35.611c-6.678 0-12.111-5.433-12.111-12.11 0-6.678 5.433-12.111 12.111-12.111 6.678 0 12.111 5.433 12.111 12.111 0 6.677-5.433 12.11-12.111 12.11zm0-20.051c-4.379 0-7.941 3.562-7.941 7.94 0 4.379 3.563 7.94 7.941 7.94s7.941-3.561 7.941-7.94c0-4.378-3.563-7.94-7.941-7.94z"/></svg><svg viewBox="0 0 18 26" id="ic_soc4" xmlns="http://www.w3.org/2000/svg"><path fill-rule="evenodd" d="M15.037 16.933l.001.001c-1.437.879-3.416 1.227-4.723 1.359-.325-.313 4.993 4.788 5.103 4.892 1.464 1.444-.918 3.702-2.399 2.307-1.002-.979-2.472-2.393-4.005-3.868l-4.005 3.863c-1.479 1.389-3.863-.888-2.382-2.307l5.011-4.82.076-.073c-1.291-.131-3.301-.46-4.755-1.359-1.711-1.06-2.461-1.68-1.801-2.979.389-.737 1.454-1.359 2.864-.287 0 0 1.905 1.46 4.98 1.46 3.074 0 4.98-1.46 4.98-1.46 1.412-1.066 2.472-.45 2.865.287.651 1.299-.099 1.918-1.81 2.984zM7.638 18.36c.029-.028.144-.139 0 0zM9 13.153c-3.749 0-6.809-2.929-6.809-6.534C2.191 2.999 5.251.07 9 .07c3.748 0 6.808 2.929 6.808 6.549 0 3.605-3.06 6.534-6.808 6.534zm0-9.765c-1.842 0-3.344 1.444-3.343 3.231C5.657 8.39 7.159 9.835 9 9.835s3.343-1.445 3.343-3.216c0-1.786-1.502-3.231-3.343-3.231z"/></svg><svg viewBox="0 0 26 19" id="ic_visually_impaired" xmlns="http://www.w3.org/2000/svg"><path fill-rule="evenodd" d="M25.601 9.075C23.48 4.609 18.657.583 13.015.583 6.666.583 2.103 5.549.428 9.075a.996.996 0 0 0 0 .85c2.122 4.466 6.945 8.492 12.587 8.492 6.348 0 10.912-4.966 12.586-8.492a.989.989 0 0 0 0-.85zm-12.586 7.361c-4.565 0-8.349-3.009-10.569-6.936 2.21-3.911 5.993-6.936 10.569-6.936 4.564 0 8.349 3.008 10.569 6.936-2.211 3.911-5.993 6.936-10.569 6.936zm0-11.89A4.96 4.96 0 0 0 8.061 9.5a4.96 4.96 0 0 0 4.954 4.954A4.96 4.96 0 0 0 17.969 9.5a4.96 4.96 0 0 0-4.954-4.954zm0 7.926A2.976 2.976 0 0 1 10.042 9.5a2.976 2.976 0 0 1 2.973-2.972A2.975 2.975 0 0 1 15.987 9.5a2.975 2.975 0 0 1-2.972 2.972z"/></svg></svg>